<svg xmlns="http://www.w3.org/2000/svg" width="1200" height="720" viewBox="0 0 1200 720">
  <defs>
    <linearGradient id="bg" x1="0" y1="0" x2="1" y2="1">
      <stop offset="0" stop-color="#f8fafc"/>
      <stop offset="1" stop-color="#eef2ff"/>
    </linearGradient>
  </defs>
  <rect width="1200" height="720" fill="url(#bg)"/>
  <g transform="translate(60,60)">
    <rect x="0" y="0" width="1080" height="240" rx="16" fill="#ffffff" stroke="#e2e8f0"/>
    <text x="20" y="36" font-family="Inter, sans-serif" font-size="18" fill="#0f172a">系统架构总览</text>
    <g transform="translate(20,60)">
      <rect x="0" y="0" width="220" height="120" rx="10" fill="#eef2ff" stroke="#c7d2fe"/>
      <text x="16" y="28" font-size="14" fill="#1e293b">API 网关</text>
      <rect x="260" y="0" width="220" height="120" rx="10" fill="#ecfeff" stroke="#a5f3fc"/>
      <text x="276" y="28" font-size="14" fill="#1e293b">认证中心</text>
      <rect x="520" y="0" width="220" height="120" rx="10" fill="#fef9c3" stroke="#fde68a"/>
      <text x="536" y="28" font-size="14" fill="#1e293b">业务服务</text>
      <rect x="780" y="0" width="220" height="120" rx="10" fill="#dcfce7" stroke="#86efac"/>
      <text x="796" y="28" font-size="14" fill="#1e293b">数据服务</text>
      <path d="M220,60 L260,60 M480,60 L520,60 M740,60 L780,60" stroke="#64748b" stroke-width="2" marker-end="url(#arrow)"/>
    </g>
  </g>
  <g transform="translate(60,340)">
    <rect x="0" y="0" width="1080" height="280" rx="16" fill="#ffffff" stroke="#e2e8f0"/>
    <text x="20" y="36" font-family="Inter, sans-serif" font-size="18" fill="#0f172a">数据流示意</text>
    <g transform="translate(20,60)">
      <polyline points="0,120 150,80 300,110 450,70 600,90 750,60 900,80 1060,50" fill="none" stroke="#4f46e5" stroke-width="3"/>
      <polyline points="0,150 150,140 300,160 450,130 600,120 750,110 900,90 1060,85" fill="none" stroke="#22c55e" stroke-width="3"/>
    </g>
  </g>
  <defs>
    <marker id="arrow" markerWidth="10" markerHeight="10" refX="9" refY="3" orient="auto" markerUnits="strokeWidth">
      <path d="M0,0 L10,3 L0,6" fill="#64748b" />
    </marker>
  </defs>
</svg>
